<svg width="28" height="22" viewBox="0 0 28 22" fill="none" xmlns="http://www.w3.org/2000/svg">
<path d="M17.0077 22H7.50773C5.58338 22.002 3.73188 21.2642 2.33627 19.9393C0.940651 18.6144 0.107703 16.8037 0.00973385 14.8818C-0.0882353 12.96 0.556271 11.074 1.80992 9.61401C3.06358 8.15405 4.83045 7.23182 6.74503 7.03811C7.46655 5.1693 8.6847 3.53301 10.268 2.30579C11.8514 1.07857 13.7398 0.307031 15.7295 0.0744161C17.7192 -0.158198 19.7346 0.156948 21.5583 0.985849C23.382 1.81475 24.9448 3.12593 26.0779 4.77791C27.211 6.42989 27.8715 8.35994 27.9881 10.3598C28.1047 12.3596 27.673 14.3534 26.7395 16.1258C25.806 17.8983 24.4062 19.3822 22.6912 20.4174C20.9762 21.4526 19.011 21.9998 17.0077 22ZM17.0077 2.00001C15.0912 1.99531 13.2235 2.60451 11.6784 3.73837C10.1332 4.87222 8.99178 6.47112 8.42133 8.30081L8.20203 8.99611L7.47303 9C6.01434 9.00461 4.61722 9.58848 3.58903 10.6232C2.56083 11.6579 1.98578 13.0587 1.99038 14.5174C1.99498 15.976 2.57886 17.3732 3.61356 18.4014C4.64827 19.4296 6.04904 20.0046 7.50773 20H17.0077C19.3947 20 21.6839 19.0518 23.3717 17.364C25.0595 15.6761 26.0077 13.387 26.0077 11C26.0077 8.61306 25.0595 6.32387 23.3717 4.63604C21.6839 2.94822 19.3947 2.00001 17.0077 2.00001Z" fill="url(#paint0_linear_1_719)"/>
<path d="M11.0078 13H9.00781C9.00937 11.6744 9.53666 10.4035 10.474 9.46619C11.4113 8.52885 12.6822 8.00156 14.0078 8V10C13.2124 10.0009 12.4499 10.3172 11.8875 10.8796C11.325 11.4421 11.0087 12.2046 11.0078 13Z" fill="url(#paint1_linear_1_719)"/>
<path d="M14.0078 18V16C14.8032 15.9991 15.5657 15.6828 16.1282 15.1204C16.6906 14.5579 17.0069 13.7954 17.0078 13H19.0078C19.0063 14.3256 18.479 15.5965 17.5416 16.5338C16.6043 17.4712 15.3334 17.9984 14.0078 18Z" fill="url(#paint2_linear_1_719)"/>
<defs>
<linearGradient id="paint0_linear_1_719" x1="15.5018" y1="4.42857" x2="23.6377" y2="4.42857" gradientUnits="userSpaceOnUse">
<stop stop-color="#AF9EF9"/>
<stop offset="1" stop-color="#F6D0FC"/>
</linearGradient>
<linearGradient id="paint1_linear_1_719" x1="11.7753" y1="9.00649" x2="13.2278" y2="9.00649" gradientUnits="userSpaceOnUse">
<stop stop-color="#AF9EF9"/>
<stop offset="1" stop-color="#F6D0FC"/>
</linearGradient>
<linearGradient id="paint2_linear_1_719" x1="16.7753" y1="14.0065" x2="18.2278" y2="14.0065" gradientUnits="userSpaceOnUse">
<stop stop-color="#AF9EF9"/>
<stop offset="1" stop-color="#F6D0FC"/>
</linearGradient>
</defs>
</svg>
